<svg id="Layer_1" enable-background="new 0 0 512 512" height="512" viewBox="0 0 512 512" width="512" xmlns="http://www.w3.org/2000/svg"><g><path d="m77.09 359.4c-17.846 0-32.364 14.518-32.364 32.364 1.777 42.935 62.957 42.923 64.728 0 0-17.846-14.518-32.364-32.364-32.364zm0 44.728c-6.817 0-12.364-5.546-12.364-12.364.679-16.402 24.051-16.397 24.728 0 0 6.817-5.546 12.364-12.364 12.364z"/><path d="m509.599 334.802c.529-4.164.247-8.334-.842-12.398l-23.152-86.406c-1.103-4.118-2.973-7.904-5.487-11.204-.564-4.154-1.914-8.102-4.021-11.75l-44.728-77.47c-2.163-3.747-4.967-6.898-8.195-9.394-1.619-3.867-3.946-7.334-6.929-10.317l-63.254-63.254c-12.619-12.618-33.15-12.618-45.77 0l-262.063 262.064h-12.795c-17.845 0-32.363 14.518-32.363 32.363v89.455c0 17.845 14.518 32.363 32.363 32.363h447.273c17.845 0 32.363-14.518 32.363-32.363v-89.455c.001-4.327-.853-8.458-2.4-12.234zm-23.442-19.469c-2.107-.433-4.287-.66-6.52-.66h-65.562l-18.077-67.465 55.146-14.776c3.166-.848 6.493-.402 9.368 1.259 2.875 1.66 4.926 4.317 5.774 7.484zm-345.812-67.562 11.701 11.701-55.369 31.967zm63.254-63.254 28.65 28.65-62.271 35.952-15.49-15.49zm63.254-63.254 45.598 45.598-62.27 35.952-32.439-32.439zm-13.925 103.058 20.258 35.089-69.455 18.61-10.953-18.972zm-77.47 44.727 8.274 14.331-61.756 16.548zm-31.243 45.625 59.652-15.984 4.283 15.984zm84.64 0-5.67-21.16 67.088-17.976 10.487 39.136zm92.61 0-11.873-44.313 67.088-17.976 16.69 62.289zm-28.279-60.622-22.938-39.73 60.149-34.727 32.243 55.847zm-69.549 80.622v114.182h-69.455v-114.182zm20 0h69.454v114.182h-69.454zm89.454 0h69.455v114.182h-69.455zm119.344-122.612c-2.163.13-4.328.479-6.468 1.052l-63.327 16.969-34.922-60.488 49.442-28.545c2.839-1.638 6.169-2.068 9.375-1.209 3.207.859 5.875 2.896 7.514 5.734zm-131.071-145.309c4.82-4.821 12.664-4.821 17.484 0l54.288 54.288c-2.041.679-4.043 1.573-5.977 2.689l-56.777 32.78-49.388-49.388zm-301.364 369.739v-89.455c0-6.817 5.546-12.363 12.363-12.363h101.819v114.182h-101.819c-6.817 0-12.363-5.546-12.363-12.364zm472 0c0 6.817-5.546 12.363-12.363 12.363h-57.091v-114.181h57.091c6.817 0 12.363 5.546 12.363 12.363z"/></g></svg>