<svg height="496pt" viewBox="0 0 496 496" width="496pt" xmlns="http://www.w3.org/2000/svg"><path d="m80 192c26.472656 0 48-21.527344 48-48s-21.527344-48-48-48c-4.425781 0-8 3.574219-8 8v32h-32c-4.425781 0-8 3.574219-8 8 0 26.472656 21.527344 48 48 48zm0-40c4.425781 0 8-3.574219 8-8v-30.984375c13.792969 3.550781 24 16.105469 24 30.984375 0 17.648438-14.351562 32-32 32-14.878906 0-27.433594-10.207031-30.984375-24zm0 0"/><path d="m160 104h128v16h-128zm0 0"/><path d="m160 136h128v16h-128zm0 0"/><path d="m160 168h128v16h-128zm0 0"/><path d="m160 224h-120c-4.425781 0-8 3.574219-8 8v48c0 4.425781 3.574219 8 8 8h120c4.425781 0 8-3.574219 8-8v-48c0-4.425781-3.574219-8-8-8zm-8 48h-104v-32h104zm0 0"/><path d="m160 304h-120c-4.425781 0-8 3.574219-8 8v144c0 4.425781 3.574219 8 8 8h120c4.425781 0 8-3.574219 8-8v-144c0-4.425781-3.574219-8-8-8zm-8 16v96h-104v-96zm-104 128v-16h104v16zm0 0"/><path d="m200 320h56v-16h-64c-4.425781 0-8 3.574219-8 8v144c0 4.425781 3.574219 8 8 8h64v-16h-56v-16h56v-16h-56zm0 0"/><path d="m400 250.414062v-242.414062c0-4.425781-3.574219-8-8-8h-320c-4.425781 0-8 3.574219-8 8v24h-24c-4.425781 0-8 3.574219-8 8v24h-24c-4.425781 0-8 3.574219-8 8v416c0 4.425781 3.574219 8 8 8h320c4.425781 0 8-3.574219 8-8v-7c12.535156 4.449219 25.960938 7 40 7 66.167969 0 120-53.832031 120-120 0-57.953125-41.289062-106.433594-96-117.585938zm-320-234.414062h304v232.40625c-2.65625-.175781-5.296875-.40625-8-.40625s-5.34375.230469-8 .40625v-208.40625c0-4.425781-3.574219-8-8-8h-280zm-32 32h304v202.414062c-5.496094 1.121094-10.800781 2.738282-16 4.585938v-183c0-4.425781-3.574219-8-8-8h-280zm272 432h-304v-400h304v181.945312c-38.015625 20.152344-64 60.101563-64 106.054688s25.984375 85.894531 64 106.054688zm56-8c-57.34375 0-104-46.65625-104-104s46.65625-104 104-104 104 46.65625 104 104-46.65625 104-104 104zm0 0"/><path d="m376 280c-48.519531 0-88 39.480469-88 88h16c0-39.703125 32.296875-72 72-72s72 32.296875 72 72h16c0-48.519531-39.480469-88-88-88zm0 0"/><path d="m368 372.6875-45.65625 45.65625 11.3125 11.3125 48-48c1.503906-1.496094 2.34375-3.527344 2.34375-5.65625v-48h-16zm0 0"/><path d="m200 224h88v16h-88zm0 0"/><path d="m200 256h88v16h-88zm0 0"/></svg>